<svg width="24" height="24" viewBox="0 0 24 24" fill="none" xmlns="http://www.w3.org/2000/svg">
<g clip-path="url(#clip0_92_20)">
<path d="M22 12.5401C20.196 12.1951 19.299 11.4601 18.477 9.6001C17.99 10.2961 17.375 11.1681 17.557 12.0001C17.585 12.2381 17.237 13.0001 17 13.0001H3C3 18.2081 6.164 20.0001 9.196 20.0001C13.32 20.0221 17.024 18.6241 19.05 15.0001C20.196 14.8991 21.346 13.4951 22 12.5401Z" stroke="white" stroke-width="2" stroke-linecap="round" stroke-linejoin="round"/>
<path d="M5 10H8V13H5V10Z" stroke="white" stroke-width="2" stroke-linecap="round" stroke-linejoin="round"/>
<path d="M8 10H11V13H8V10Z" stroke="white" stroke-width="2" stroke-linecap="round" stroke-linejoin="round"/>
<path d="M11 10H14V13H11V10Z" stroke="white" stroke-width="2" stroke-linecap="round" stroke-linejoin="round"/>
<path d="M8 7H11V10H8V7Z" stroke="white" stroke-width="2" stroke-linecap="round" stroke-linejoin="round"/>
<path d="M11 7H14V10H11V7Z" stroke="white" stroke-width="2" stroke-linecap="round" stroke-linejoin="round"/>
<path d="M11 4H14V7H11V4Z" stroke="white" stroke-width="2" stroke-linecap="round" stroke-linejoin="round"/>
<path d="M4.571 18.0002C6.071 18.0002 6.618 17.9262 7.529 17.2202" stroke="white" stroke-width="2" stroke-linecap="round" stroke-linejoin="round"/>
<path d="M10 16V16.01" stroke="white" stroke-width="2" stroke-linecap="round" stroke-linejoin="round"/>
</g>
<defs>
<clipPath id="clip0_92_20">
<rect width="24" height="24" fill="white"/>
</clipPath>
</defs>
</svg>
