<svg width="24" height="24" viewBox="0 0 24 24" fill="none" xmlns="http://www.w3.org/2000/svg">
<path d="M23.5467 10.9303L13.0677 0.45279C12.9242 0.309243 12.7538 0.195371 12.5664 0.117679C12.3789 0.0399879 12.1779 0 11.9749 0C11.772 0 11.571 0.0399879 11.3835 0.117679C11.196 0.195371 11.0257 0.309243 10.8822 0.45279L8.70718 2.62779L11.4672 5.38779C11.7927 5.27665 12.1429 5.25927 12.4778 5.33761C12.8127 5.41596 13.1188 5.58689 13.3613 5.83088C13.6037 6.07487 13.7727 6.38211 13.8489 6.71752C13.925 7.05293 13.9054 7.40301 13.7922 7.72779L16.4517 10.3888C16.8451 10.2503 17.2741 10.2498 17.6678 10.3876C18.0615 10.5254 18.3966 10.7931 18.6179 11.1467C18.8391 11.5004 18.9334 11.9188 18.8851 12.3331C18.8368 12.7475 18.6488 13.133 18.3522 13.4263C18.0519 13.7285 17.6559 13.917 17.2321 13.9597C16.8082 14.0023 16.3826 13.8965 16.0281 13.6603C15.6736 13.424 15.4121 13.0721 15.2882 12.6644C15.1644 12.2568 15.1859 11.8188 15.3492 11.4253L12.8697 8.94429V15.4738C13.2466 15.6604 13.5481 15.9704 13.7241 16.3524C13.9001 16.7343 13.9398 17.165 13.8367 17.5727C13.7336 17.9804 13.4939 18.3405 13.1576 18.5929C12.8212 18.8453 12.4085 18.9748 11.9882 18.9598C11.568 18.9447 11.1655 18.7862 10.848 18.5104C10.5305 18.2347 10.3171 17.8584 10.2433 17.4444C10.1696 17.0304 10.24 16.6036 10.4428 16.2352C10.6455 15.8668 10.9684 15.579 11.3577 15.4198V8.83029C11.1331 8.73827 10.929 8.60272 10.757 8.43143C10.5851 8.26015 10.4488 8.05653 10.3559 7.83231C10.2631 7.6081 10.2155 7.36772 10.216 7.12503C10.2164 6.88234 10.2649 6.64215 10.3587 6.41829L7.63918 3.69729L0.454179 10.8823C0.310631 11.0258 0.196759 11.1961 0.119068 11.3836C0.0413765 11.5711 0.00138855 11.7721 0.00138855 11.975C0.00138855 12.178 0.0413765 12.379 0.119068 12.5665C0.196759 12.754 0.310631 12.9243 0.454179 13.0678L10.9332 23.5468C11.0767 23.6903 11.247 23.8042 11.4345 23.8819C11.622 23.9596 11.823 23.9996 12.0259 23.9996C12.2289 23.9996 12.4299 23.9596 12.6174 23.8819C12.8048 23.8042 12.9752 23.6903 13.1187 23.5468L23.5482 13.1173C23.6917 12.9738 23.8056 12.8035 23.8833 12.616C23.961 12.4285 24.001 12.2275 24.001 12.0245C24.001 11.8216 23.961 11.6206 23.8833 11.4331C23.8056 11.2456 23.6917 11.0753 23.5482 10.9318" fill="#F34F29"/>
</svg>
