<svg width="18" height="20" viewBox="0 0 18 20" fill="none" xmlns="http://www.w3.org/2000/svg">
<path d="M0.398438 0.25L1.94531 17.7484L8.99531 19.75L16.0172 17.7484L17.5945 0.25H0.398438ZM14.7164 16.6703L8.99531 18.3016L3.24844 16.6703L1.91953 1.64219H16.0711L14.7164 16.6703ZM3.58594 3.83594L3.62578 4.40547L4.15781 10.3469H8.99766V10.3445H11.6437L11.3766 13.1219L8.97656 13.7711V13.7758H8.95781L6.55781 13.1266L6.40547 11.4109H4.27266L4.5375 14.8023L8.95781 16.0211H8.99766V16.0117L13.3969 14.8L13.4367 14.418L13.9336 8.74141L14.0086 8.17188H8.97656V8.17656H6.13828L5.94609 5.96875H14.1984L14.2383 5.51172L14.3508 4.40547L14.3906 3.83594H8.97656H3.58594Z" fill="white"/>
</svg>
