<svg width="22" height="22" viewBox="0 0 22 22" fill="none" xmlns="http://www.w3.org/2000/svg">
<path fill-rule="evenodd" clip-rule="evenodd" d="M0 1.83783C0 1.35041 0.19363 0.88295 0.53829 0.53829C0.88295 0.19363 1.35041 0 1.83783 0H20.1611C20.4025 0 20.6415 0.04754 20.8644 0.1399C21.0874 0.23226 21.29 0.36763 21.4607 0.53829C21.6313 0.70895 21.7667 0.91155 21.8591 1.13452C21.9514 1.3575 21.999 1.59648 21.999 1.83783V20.1611C21.999 20.4025 21.9514 20.6415 21.8591 20.8644C21.7667 21.0874 21.6313 21.29 21.4607 21.4607C21.29 21.6313 21.0874 21.7667 20.8644 21.8591C20.6415 21.9514 20.4025 21.999 20.1611 21.999H1.83783C1.35041 21.999 0.88295 21.8053 0.53829 21.4607C0.19363 21.116 0 20.6486 0 20.1611V1.83783ZM8.70792 8.38711H11.687V9.884C12.1164 9.0232 13.2168 8.24961 14.8699 8.24961C18.0387 8.24961 18.7908 9.9628 18.7908 13.1063V18.9283H15.5826V13.8222C15.5826 12.0321 15.1532 11.0224 14.061 11.0224C12.5463 11.0224 11.9161 12.1109 11.9161 13.8222V18.9283H8.70792V8.38711ZM3.20818 18.7908H6.41637V8.24961H3.20818V18.7908ZM6.87468 4.81227C6.87468 5.08311 6.82133 5.3513 6.71769 5.60152C6.61404 5.85174 6.46212 6.0791 6.27061 6.27061C6.0791 6.46212 5.85174 6.61404 5.60152 6.71769C5.3513 6.82133 5.08311 6.87468 4.81227 6.87468C4.54144 6.87468 4.27325 6.82133 4.02303 6.71769C3.7728 6.61404 3.54545 6.46212 3.35393 6.27061C3.16242 6.0791 3.01051 5.85174 2.90686 5.60152C2.80322 5.3513 2.74987 5.08311 2.74987 4.81227C2.74987 4.26529 2.96716 3.74071 3.35393 3.35393C3.74071 2.96716 4.26529 2.74987 4.81227 2.74987C5.35926 2.74987 5.88384 2.96716 6.27061 3.35393C6.65739 3.74071 6.87468 4.26529 6.87468 4.81227Z" fill="#007BB5"/>
</svg>
