<svg width="30" height="25" viewBox="0 0 30 25" fill="none" xmlns="http://www.w3.org/2000/svg">
<path d="M9.75002 17C9.63798 17 9.52595 17.0164 9.41908 17.0511C8.81158 17.2484 8.17267 17.375 7.50001 17.375C6.82736 17.375 6.18845 17.2484 5.58048 17.0511C5.47361 17.0164 5.36205 17 5.25001 17C2.34095 17 -0.0154541 19.3662 1.46904e-05 22.2791C0.00657719 23.51 1.01861 24.5 2.25001 24.5H12.75C13.9814 24.5 14.9935 23.51 15 22.2791C15.0155 19.3662 12.6591 17 9.75002 17ZM7.50001 15.5C9.98533 15.5 12 13.4853 12 11C12 8.51469 9.98533 6.5 7.50001 6.5C5.0147 6.5 3.00001 8.51469 3.00001 11C3.00001 13.4853 5.0147 15.5 7.50001 15.5ZM27.75 0.5H9.75002C8.50923 0.5 7.50001 1.54297 7.50001 2.82453V5C8.59783 5 9.61408 5.31781 10.5 5.83438V3.5H27V17H24V14H18V17H14.4263C15.3216 17.7823 15.9788 18.8155 16.2867 20H27.75C28.9908 20 30 18.957 30 17.6755V2.82453C30 1.54297 28.9908 0.5 27.75 0.5Z" fill="#E80505"/>
</svg>
