<svg width="16" height="11" viewBox="0 0 16 11" fill="none" xmlns="http://www.w3.org/2000/svg">
<path fill-rule="evenodd" clip-rule="evenodd" d="M8.217 2.24301C9.145 0.988008 10.171 8.06452e-06 11.483 8.06452e-06C13.96 8.06452e-06 16 3.15301 16.001 6.90701C16.001 9.19701 15.015 10.632 13.244 10.632C11.701 10.632 10.849 9.76601 9.32 7.20801L8.653 6.08501L8.535 5.88801C8.36106 5.59403 8.18439 5.30169 8.005 5.01101L6.827 7.09101C5.154 10.016 4.212 10.632 2.904 10.632C1.086 10.632 0 9.21701 0 6.97301C0 3.38801 1.995 8.06452e-06 4.598 8.06452e-06C4.916 -0.000658602 5.224 0.040008 5.522 0.122008C5.832 0.208008 6.133 0.342008 6.435 0.529008C7.012 0.888008 7.589 1.44401 8.217 2.24301ZM9.733 4.46701C9.481 4.05767 9.23867 3.68001 9.006 3.33401L9 3.32601C9.845 2.02101 10.543 1.37201 11.372 1.37201C13.095 1.37201 14.474 3.90901 14.474 7.02501C14.474 8.21301 14.084 8.90201 13.279 8.90201C12.506 8.90201 12.137 8.39201 10.669 6.03201L9.733 4.46701ZM4.846 1.75601C5.571 1.85601 6.231 2.39001 7.186 3.75701C6.63496 4.60078 6.08995 5.44847 5.551 6.30001C4.194 8.42601 3.725 8.90301 2.97 8.90301C2.193 8.90301 1.73 8.22101 1.73 7.00301C1.73 4.40101 3.028 1.73901 4.576 1.73901C4.66667 1.73901 4.75667 1.74401 4.846 1.75601Z" fill="#0081FB"/>
</svg>
